<?xml version="1.0" encoding="utf-8"?>
<!-- Generator: Adobe Illustrator 25.3.1, SVG Export Plug-In . SVG Version: 6.00 Build 0)  -->
<svg version="1.1" id="Layer_1" xmlns="http://www.w3.org/2000/svg" xmlns:xlink="http://www.w3.org/1999/xlink" x="0px" y="0px"
	 viewBox="0 0 512 512" style="enable-background:new 0 0 512 512;" xml:space="preserve">
<style type="text/css">
	.st0{fill:#ED1C24;stroke:#ED1C24;stroke-miterlimit:10;}
</style>
<path class="st0" d="M55.71,223.14c-2.04,0.25,0.65,64.52,22.86,130.29c3.51,10.4,10.62,30.05,26.29,50.86
	c11.25,14.94,16.87,22.41,24.59,24.55c28.17,7.8,65.48-41.03,98.71-84.52c12.56-16.44,20.04-27.89,27.56-38.89
	c22.31-32.62,72.34-105.8,136.16-169.86c46.3-46.47,83.87-72.1,82.7-73.57c-1.14-1.44-37.62,22.6-75.43,56
	c-33.58,29.67-55.3,55.31-93.14,100c-31.94,37.71-60,74.41-65.14,81.14c-14.52,19.03-15.09,20.36-26.05,34.38
	c-42.94,54.97-64.74,82.39-80.81,79.34c-19.21-3.65-26.99-41.98-29.78-55.74c-14.53-71.63,19.88-132.15,7.49-138.54
	c-9.42-4.86-32.81,30.23-47.27,23.38C56.12,238,56.78,223.01,55.71,223.14z"/>
</svg>
